<?xml version="1.0" encoding="UTF-8"?>
<svg id="Layer_1" data-name="Layer 1" xmlns="http://www.w3.org/2000/svg" viewBox="0 0 1022.85 460.05">
  <defs>
    <style>
      .cls-1 {
        fill: #372aac;
      }
    </style>
  </defs>
  <path class="cls-1" d="M0,452.42L88.96,7.63h224.94c50.83,0,89.17,8.89,115.01,26.69,25.83,17.79,38.76,43.64,38.76,77.52,0,27.54-7.53,50.83-22.56,69.9-15.04,19.06-35.48,33.58-61.32,43.52-25.85,9.96-55.08,14.94-87.69,14.94l18.43-30.5c41.08,0,73.71,8.8,97.85,26.37,24.15,17.59,36.22,42.68,36.22,75.3s-9,58.67-27.01,79.43c-18.01,20.76-42.47,36.22-73.39,46.38-30.93,10.17-65.45,15.25-103.57,15.25H0ZM142.33,361.56h109.93c21.61,0,38.86-4.45,51.79-13.35,12.91-8.89,19.38-22.02,19.38-39.4,0-13.13-4.87-22.66-14.61-28.6-9.75-5.93-22.24-8.89-37.49-8.89h-122l17.16-87.05h101.67c14.82,0,27.42-1.91,37.81-5.72,10.38-3.81,18.11-9.53,23.2-17.16,5.08-7.62,7.62-16.94,7.62-27.96,0-11.85-4.67-20.65-13.98-26.37-9.33-5.72-22.24-8.58-38.76-8.58h-88.96l-52.74,263.07Z"/>
  <path d="M792.19,460.05c-45.33,0-84.51-8.15-117.55-24.46-33.04-16.3-58.36-38.86-75.93-67.67-17.59-28.8-26.37-62.48-26.37-101.03s6.68-72.86,20.02-105.48c13.35-32.61,32.19-60.89,56.55-84.83,24.35-23.93,53.37-42.67,87.05-56.24C769.63,6.78,807.22,0,848.74,0s74.98,6.78,105.48,20.34c30.5,13.56,53.38,32.83,68.63,57.82l-74.35,61c-11.02-16.52-25.42-29.33-43.21-38.44-17.79-9.11-38.98-13.66-63.54-13.66s-47.66,4.45-67.99,13.34c-20.34,8.9-37.81,21.29-52.42,37.18-14.62,15.88-25.73,34.31-33.36,55.28-7.62,20.97-11.44,43.53-11.44,67.67,0,22.46,4.77,42.05,14.3,58.78,9.53,16.74,23.72,29.86,42.57,39.4,18.84,9.53,41.4,14.3,67.67,14.3,22.88,0,44.26-4.23,64.18-12.71,19.91-8.47,37.91-21.61,54.01-39.4l60.37,62.27c-22.88,27.12-50.2,46.7-81.97,58.78-31.77,12.07-66.94,18.11-105.48,18.11Z"/>
</svg>