<?xml version="1.0" encoding="UTF-8"?>
<svg id="Layer_1" data-name="Layer 1" xmlns="http://www.w3.org/2000/svg" viewBox="0 0 2994.19 584.24">
  <defs>
    <style>
      .cls-1 {
        fill: #fff;
      }
    </style>
  </defs>
  <g>
    <path class="cls-1" d="M163.14,336.44c-32.97,0-61.7-6.01-86.19-18.02s-43.44-28.72-56.84-50.14C6.7,246.86,0,222.14,0,194.1s4.92-53.91,14.79-77.64c9.86-23.72,23.8-44.29,41.82-61.7,18.02-17.4,39.74-30.88,65.16-40.44C147.19,4.78,175.15,0,205.65,0c32.35,0,60.23,5.08,83.65,15.25,23.41,10.17,42.52,24.96,57.31,44.37l-66.09,52.22c-10.17-13.55-21.72-22.95-34.66-28.19-12.94-5.24-27.73-7.86-44.37-7.86s-31.66,2.77-45.06,8.32-24.88,13.4-34.43,23.57c-9.55,10.17-16.87,22.11-21.95,35.82s-7.62,28.58-7.62,44.6c0,14.49,3.23,27.19,9.7,38.13,6.47,10.94,15.86,19.41,28.19,25.42,12.32,6.01,27.27,9.01,44.83,9.01,14.17,0,27.88-2.38,41.13-7.16,13.24-4.77,26.34-12.4,39.28-22.88l35.12,67.01c-16.95,12.33-36.36,21.88-58.23,28.65-21.88,6.77-44.99,10.17-69.32,10.17h0ZM212.12,283.75l24.49-122.47h80.88l-26.8,136.33-78.56-13.86h-.01Z"/>
    <path class="cls-1" d="M341.98,329.97L406.68,6.47h138.18c41.28,0,73.32,9.09,96.13,27.27,22.8,18.18,34.2,43.44,34.2,75.79,0,27.11-6.55,50.76-19.64,70.94-13.1,20.18-31.58,35.82-55.46,46.91s-52.3,16.64-85.27,16.64h-104.44l48.52-39.28-25.42,125.24h-91.5,0ZM456.59,215.82l-32.35-42.98h95.2c20.02,0,35.51-4.62,46.45-13.86,10.93-9.24,16.41-22.8,16.41-40.67,0-13.86-4.39-23.95-13.17-30.27-8.78-6.31-21.34-9.47-37.66-9.47h-87.81l48.99-43.44-36.05,180.7h-.01ZM545.32,329.97l-66.55-117.85h94.74l67.47,117.85h-95.66,0Z"/>
    <path class="cls-1" d="M645.14,329.97L852.64,6.47h90.12l78.56,323.5h-91.5l-57.77-280.06h35.58l-165.45,280.06h-97.05.01ZM735.72,266.66l36.97-67.01h157.59l10.63,67.01h-205.19,0Z"/>
    <path class="cls-1" d="M1219.58,336.44c-32.97,0-61.78-6.01-86.42-18.02-24.65-12.02-43.6-28.72-56.84-50.14-13.25-21.41-19.87-46.13-19.87-74.17s4.92-53.91,14.79-77.64c9.86-23.72,23.72-44.29,41.59-61.7,17.86-17.4,39.2-30.88,64.01-40.44C1201.64,4.78,1229.13,0,1259.33,0s56.38,5.24,79.49,15.71c23.11,10.48,40.36,25.58,51.76,45.29l-65.62,52.68c-7.7-12.32-17.49-21.72-29.35-28.19s-25.96-9.7-42.29-9.7-29.97,2.77-42.75,8.32c-12.79,5.55-23.8,13.4-33.04,23.57s-16.33,22.11-21.26,35.82c-4.93,13.71-7.39,28.58-7.39,44.6,0,14.49,3.16,27.19,9.47,38.13,6.31,10.94,15.4,19.41,27.27,25.42,11.86,6.01,25.95,9.01,42.29,9.01,14.48,0,28.42-3,41.82-9.01,13.4-6.01,25.8-15.48,37.2-28.42l54.07,53.15c-18.18,21.88-39.13,37.36-62.85,46.45-23.73,9.08-49.91,13.63-78.56,13.63v-.02h0Z"/>
    <path class="cls-1" d="M1488.08,258.8h169.61l-14.33,71.17h-259.72L1448.34,6.47h253.25l-14.33,71.17h-162.67l-36.51,181.16ZM1507.03,131.71h150.2l-13.4,67.94h-150.2l13.4-67.94Z"/>
  </g>
  <g>
    <path class="cls-1" d="M1826.37,334.59c-16.64,0-32.97-1.62-48.99-4.85s-30.58-7.78-43.67-13.63c-13.1-5.85-23.96-12.32-32.58-19.41l25.42-47.6c9.24,7.71,19.48,14.17,30.73,19.41,11.24,5.24,23.26,9.24,36.05,12.02,12.78,2.77,25.65,4.16,38.59,4.16,15.71,0,29.42-1.85,41.13-5.55,11.71-3.7,20.72-8.93,27.04-15.71,6.31-6.77,9.47-14.94,9.47-24.49,0-8.62-3-15.63-9.01-21.03-6.01-5.39-13.79-9.86-23.34-13.4-9.55-3.54-20.1-6.85-31.66-9.94-11.55-3.08-23.11-6.77-34.66-11.09-11.55-4.31-22.18-9.63-31.89-15.94s-17.56-14.33-23.57-24.03-9.01-22.25-9.01-37.66c0-20.95,6.01-39.2,18.02-54.76,12.02-15.55,28.49-27.65,49.45-36.28,20.95-8.62,45.44-12.94,73.48-12.94,20.95,0,40.82,2.31,59.62,6.93,18.79,4.62,34.96,11.4,48.52,20.33l-23.57,47.6c-12.02-8.32-25.65-14.56-40.9-18.72s-30.89-6.24-46.91-6.24-30.27,2.01-41.82,6.01c-11.55,4.01-20.49,9.55-26.8,16.64-6.32,7.09-9.47,15.41-9.47,24.96,0,8.94,2.92,16.18,8.78,21.72,5.85,5.55,13.63,10.17,23.34,13.86,9.71,3.7,20.33,7.16,31.89,10.4s23.11,6.78,34.66,10.63c11.55,3.86,22.18,8.86,31.89,15.02,9.71,6.17,17.56,13.86,23.57,23.11,6.01,9.24,9.01,21.11,9.01,35.58,0,21.26-5.94,39.82-17.79,55.69-11.86,15.87-28.5,28.04-49.91,36.51-21.42,8.47-46.45,12.71-75.1,12.71v-.02h-.01Z"/>
    <path class="cls-1" d="M2172.51,334.59c-32.35,0-60.08-5.78-83.19-17.33-23.11-11.55-40.75-27.73-52.92-48.53-12.17-20.8-18.25-44.9-18.25-72.33s4.62-52.45,13.86-76.02,22.65-44.29,40.21-62.16,38.43-31.73,62.62-41.59c24.18-9.86,51.22-14.79,81.11-14.79,32.65,0,60.61,5.78,83.88,17.33,23.26,11.55,40.97,27.73,53.15,48.53,12.17,20.8,18.25,44.91,18.25,72.33s-4.78,52.45-14.33,76.02-23.04,44.29-40.44,62.16c-17.41,17.87-38.29,31.74-62.62,41.59-24.34,9.86-51.46,14.79-81.34,14.79h.01ZM2178.06,281.91c20.33,0,38.66-3.62,55-10.86,16.33-7.24,30.27-17.25,41.82-30.04,11.55-12.78,20.33-27.5,26.34-44.13,6.01-16.64,9.01-34.35,9.01-53.15,0-17.56-3.78-33.12-11.32-46.68-7.55-13.55-18.72-24.03-33.5-31.43-14.79-7.39-32.97-11.09-54.53-11.09-20.03,0-38.29,3.62-54.76,10.86-16.49,7.24-30.5,17.26-42.05,30.04-11.55,12.79-20.41,27.5-26.57,44.13-6.17,16.64-9.24,34.36-9.24,53.15,0,17.56,3.85,33.12,11.55,46.68s18.95,24.03,33.74,31.43c14.79,7.39,32.96,11.09,54.53,11.09h-.02Z"/>
    <path class="cls-1" d="M2460.42,329.97h-60.08L2465.04,6.47h236.16l-10.17,50.83h-176.08l-54.53,272.66h0ZM2490.46,155.74h161.29l-10.17,49.91h-161.29l10.17-49.91Z"/>
    <path class="cls-1" d="M2762.66,329.97l54.07-272.66h-107.22l10.63-50.83h274.05l-10.17,50.83h-107.22l-54.53,272.66h-59.62.01Z"/>
  </g>
  <path class="cls-1" d="M6.77,582.87v-137.62h64.68c16.38,0,28.9,3.25,37.55,9.73s12.97,15.17,12.97,26.05c0,7.34-1.71,13.6-5.11,18.77-3.41,5.18-7.96,9.18-13.66,11.99-5.7,2.82-11.89,4.23-18.58,4.23l3.54-7.08c7.73,0,14.68,1.41,20.84,4.23,6.16,2.82,11.01,6.92,14.55,12.29,3.54,5.38,5.31,12.06,5.31,20.05,0,11.79-4.49,20.97-13.47,27.52-8.98,6.55-22.31,9.83-40.01,9.83H6.77ZM32.32,562.81h41.48c9.44,0,16.71-1.57,21.82-4.72,5.11-3.14,7.67-8.19,7.67-15.14s-2.56-11.83-7.67-15.04c-5.11-3.21-12.39-4.82-21.82-4.82H30.36v-19.86h38.14c8.78,0,15.59-1.57,20.44-4.72,4.85-3.15,7.27-7.86,7.27-14.16s-2.43-11.2-7.27-14.35c-4.85-3.15-11.67-4.72-20.44-4.72h-36.17v97.51Z"/>
  <path class="cls-1" d="M647.09,584.24c-11.67,0-21.86-2.33-30.57-6.98-8.72-4.65-15.47-11.01-20.25-19.07-4.78-8.06-7.18-17.33-7.18-27.82s2.33-19.76,6.98-27.82c4.65-8.06,11.07-14.41,19.27-19.07,8.19-4.65,17.53-6.98,28.01-6.98s19.33,2.26,27.33,6.78c7.99,4.52,14.28,10.84,18.87,18.97,4.59,8.13,6.88,17.76,6.88,28.9,0,.92-.03,2.06-.1,3.44-.07,1.38-.17,2.59-.3,3.64h-87.48v-16.32h74.51l-9.83,5.11c.13-5.9-1.08-11.17-3.64-15.83-2.56-4.65-6.06-8.26-10.52-10.81-4.46-2.55-9.7-3.83-15.73-3.83s-11.18,1.28-15.83,3.83c-4.65,2.56-8.23,6.19-10.71,10.91-2.49,4.72-3.74,10.16-3.74,16.32v3.93c0,6.29,1.41,11.86,4.23,16.71,2.82,4.85,6.85,8.62,12.09,11.3,5.24,2.69,11.34,4.03,18.28,4.03,5.9,0,11.21-.98,15.92-2.95,4.72-1.97,8.91-4.85,12.58-8.65l13.37,15.33c-4.85,5.51-10.85,9.7-17.99,12.58-7.14,2.89-15.3,4.32-24.48,4.32Z"/>
  <path class="cls-1" d="M1209.17,584.24c-7.86,0-14.74-1.34-20.64-4.03s-10.45-6.42-13.66-11.21c-3.21-4.78-4.82-10.19-4.82-16.22s1.41-11.21,4.23-15.92c2.82-4.72,7.44-8.46,13.86-11.21,6.42-2.75,14.94-4.13,25.56-4.13h30.47v16.32h-28.7c-8.26,0-13.86,1.35-16.81,4.03-2.95,2.69-4.42,6.06-4.42,10.12,0,4.32,1.77,7.8,5.31,10.42,3.54,2.62,8.45,3.93,14.75,3.93s11.43-1.38,16.22-4.13c4.78-2.75,8.29-6.82,10.52-12.19l3.93,14.75c-2.36,6.16-6.56,10.95-12.58,14.35-6.03,3.41-13.76,5.11-23.2,5.11ZM1242.2,582.87v-21.43l-1.18-4.32v-37.16c0-7.21-2.2-12.81-6.59-16.81-4.39-3.99-11.04-5.99-19.95-5.99-5.77,0-11.47.92-17.1,2.75-5.64,1.84-10.49,4.39-14.55,7.67l-9.63-17.89c5.77-4.32,12.51-7.6,20.25-9.83,7.73-2.23,15.79-3.34,24.18-3.34,15.33,0,27.13,3.67,35.39,11.01,8.26,7.34,12.39,18.61,12.39,33.81v61.53h-23.2Z"/>
  <path class="cls-1" d="M1798.77,584.24c-11.01,0-20.81-2.33-29.39-6.98-8.58-4.65-15.3-11.01-20.15-19.07-4.85-8.06-7.27-17.33-7.27-27.82s2.42-19.92,7.27-27.92c4.85-7.99,11.57-14.32,20.15-18.97,8.58-4.65,18.38-6.98,29.39-6.98,10.09,0,19.07,2.1,26.93,6.29,7.86,4.2,13.76,10.29,17.69,18.28l-18.68,11.01c-3.15-4.85-6.98-8.48-11.5-10.91-4.52-2.42-9.41-3.64-14.65-3.64-6.03,0-11.47,1.35-16.32,4.03-4.85,2.69-8.65,6.49-11.4,11.4-2.75,4.91-4.13,10.71-4.13,17.4s1.38,12.52,4.13,17.49c2.75,4.98,6.55,8.82,11.4,11.5,4.85,2.69,10.29,4.03,16.32,4.03,5.24,0,10.12-1.21,14.65-3.64,4.52-2.42,8.36-6.12,11.5-11.11l18.68,11.01c-3.93,7.86-9.83,13.93-17.69,18.19-7.86,4.26-16.84,6.39-26.93,6.39Z"/>
  <path class="cls-1" d="M2367.53,584.24c-10.62,0-20.15-2.33-28.6-6.98-8.45-4.65-15.11-11.04-19.95-19.17-4.85-8.12-7.27-17.36-7.27-27.72s2.42-19.92,7.27-27.92c4.85-7.99,11.47-14.32,19.86-18.97,8.39-4.65,17.95-6.98,28.7-6.98s20.54,2.33,29,6.98c8.45,4.66,15.07,10.98,19.86,18.97,4.78,8,7.18,17.3,7.18,27.92s-2.39,19.76-7.18,27.82c-4.79,8.06-11.44,14.42-19.95,19.07-8.52,4.65-18.15,6.98-28.9,6.98ZM2367.53,563.4c6.03,0,11.4-1.34,16.12-4.03,4.72-2.69,8.42-6.55,11.11-11.6,2.69-5.04,4.03-10.84,4.03-17.4s-1.35-12.48-4.03-17.4c-2.69-4.92-6.39-8.72-11.11-11.4-4.72-2.68-10.03-4.03-15.92-4.03s-11.21,1.35-15.92,4.03c-4.72,2.69-8.45,6.49-11.21,11.4-2.75,4.91-4.13,10.71-4.13,17.4s1.38,12.35,4.13,17.4c2.75,5.04,6.49,8.91,11.21,11.6,4.72,2.69,9.96,4.03,15.73,4.03Z"/>
  <path class="cls-1" d="M2890.98,582.87v-104.98h23.39v28.51l-4.13-8.85c3.54-6.68,8.81-11.86,15.83-15.53,7.01-3.67,15.1-5.51,24.28-5.51,8.52,0,16.02,1.64,22.51,4.91,6.49,3.28,11.66,8.32,15.53,15.14,3.87,6.82,5.8,15.53,5.8,26.15v60.16h-24.57v-57.01c0-9.31-2.16-16.25-6.49-20.84-4.32-4.59-10.49-6.88-18.48-6.88-5.77,0-10.88,1.18-15.33,3.54-4.46,2.36-7.9,5.87-10.32,10.52-2.43,4.65-3.64,10.52-3.64,17.59v53.08h-24.38Z"/>
</svg>